<svg width="35" height="35" viewBox="0 0 35 35" fill="none" xmlns="http://www.w3.org/2000/svg">
<g clip-path="url(#clip0_601_2258)">
<path d="M35 0H0V35H35V0Z" fill="white" fill-opacity="0.01"/>
<path d="M34.7716 17.7157C34.7748 17.6775 34.7748 17.639 34.7716 17.6008C34.7716 17.5606 34.7716 17.5261 34.7716 17.4916L32.9331 14.0156C32.651 13.4607 32.2198 12.9949 31.6875 12.6702C31.1553 12.3456 30.543 12.1748 29.919 12.177H25.4295V8.57456C25.4295 8.42217 25.3687 8.27601 25.2606 8.16826C25.1526 8.06051 25.006 8 24.8531 8H6.80288C6.65003 8 6.50345 8.06051 6.39537 8.16826C6.28729 8.27601 6.22656 8.42217 6.22656 8.57456V10.6544C6.22656 10.8068 6.28729 10.953 6.39537 11.0607C6.50345 11.1685 6.65003 11.229 6.80288 11.229C6.95573 11.229 7.10234 11.1685 7.21042 11.0607C7.3185 10.953 7.3792 10.8068 7.3792 10.6544V9.14911H24.2768V23.783H19.5222C19.3694 23.783 19.2228 23.8436 19.1147 23.9513C19.0066 24.0591 18.9459 24.2052 18.9459 24.3576C18.9459 24.51 19.0066 24.6561 19.1147 24.7638C19.2228 24.8716 19.3694 24.9321 19.5222 24.9321H26.2132C26.1142 25.4256 26.1263 25.9348 26.2486 26.4231C26.3708 26.9114 26.6002 27.3665 26.9203 27.7557C27.2403 28.1449 27.6429 28.4584 28.0992 28.6737C28.5555 28.889 29.054 29.0007 29.5588 29.0007C30.0636 29.0007 30.5621 28.889 31.0183 28.6737C31.4746 28.4584 31.8773 28.1449 32.1973 27.7557C32.5173 27.3665 32.7467 26.9114 32.869 26.4231C32.9912 25.9348 33.0033 25.4256 32.9043 24.9321H34.201C34.3539 24.9321 34.5005 24.8716 34.6085 24.7638C34.7166 24.6561 34.7773 24.51 34.7773 24.3576V17.7157H34.7716ZM29.5559 27.8049C29.1091 27.8049 28.6723 27.6728 28.3008 27.4253C27.9293 27.1779 27.6397 26.8261 27.4687 26.4146C27.2977 26.003 27.253 25.5502 27.3401 25.1133C27.4273 24.6764 27.6425 24.2751 27.9584 23.9601C28.2744 23.6451 28.6769 23.4306 29.1152 23.3437C29.5534 23.2568 30.0076 23.3014 30.4205 23.4718C30.8333 23.6423 31.1861 23.931 31.4343 24.3014C31.6826 24.6717 31.8151 25.1072 31.8151 25.5527C31.8151 26.15 31.577 26.7229 31.1534 27.1452C30.7297 27.5676 30.1551 27.8049 29.5559 27.8049ZM33.6247 23.783H32.4721C32.1672 23.295 31.7427 22.8924 31.2385 22.6132C30.7344 22.3341 30.1672 22.1876 29.5905 22.1876C29.0138 22.1876 28.4466 22.3341 27.9424 22.6132C27.4382 22.8924 27.0137 23.295 26.7089 23.783H25.4698V13.2974H29.9593C30.3706 13.297 30.7741 13.4101 31.125 13.624C31.4758 13.838 31.7605 14.1445 31.9476 14.5097L33.2962 17.1584H28.4551C28.3023 17.1584 28.1557 17.2189 28.0476 17.3267C27.9395 17.4344 27.8788 17.5806 27.8788 17.7329C27.8788 17.8853 27.9395 18.0315 28.0476 18.1392C28.1557 18.247 28.3023 18.3075 28.4551 18.3075H33.642L33.6247 23.783Z" fill="#434E4C"/>
<path d="M14.3558 22.1686C13.778 22.1711 13.2104 22.3201 12.7063 22.6015C12.2022 22.8829 11.7782 23.2876 11.4742 23.7774H8.39092V22.3812C8.39092 22.2288 8.33019 22.0827 8.22211 21.9749C8.11403 21.8672 7.96745 21.8066 7.8146 21.8066C7.66175 21.8066 7.51517 21.8672 7.40709 21.9749C7.29901 22.0827 7.23828 22.2288 7.23828 22.3812V24.3577C7.23828 24.51 7.29901 24.6562 7.40709 24.7639C7.51517 24.8717 7.66175 24.9322 7.8146 24.9322H11.0189C10.8873 25.6186 10.9712 26.3287 11.2594 26.9658C11.5475 27.6028 12.0258 28.1357 12.6289 28.4918C13.232 28.8478 13.9307 29.0097 14.6295 28.9553C15.3283 28.9009 15.9933 28.6329 16.5337 28.1878C17.0741 27.7427 17.4636 27.1423 17.649 26.4683C17.8345 25.7944 17.8068 25.0799 17.5699 24.4222C17.333 23.7645 16.8983 23.1957 16.3251 22.7935C15.752 22.3912 15.0683 22.175 14.3673 22.1744L14.3558 22.1686ZM14.3558 27.8223C13.9087 27.8234 13.4714 27.6922 13.0991 27.4454C12.7268 27.1987 12.4364 26.8473 12.2645 26.4359C12.0926 26.0244 12.047 25.5714 12.1336 25.1341C12.2201 24.6968 12.4348 24.295 12.7505 23.9794C13.0663 23.6639 13.4688 23.4488 13.9072 23.3614C14.3455 23.274 14.8001 23.3183 15.2133 23.4886C15.6264 23.6589 15.9795 23.9476 16.228 24.3181C16.4765 24.6886 16.6092 25.1243 16.6092 25.57C16.6032 26.1629 16.3634 26.7296 15.9418 27.1478C15.5202 27.5659 14.9505 27.802 14.3558 27.805V27.8223Z" fill="#434E4C"/>
<path d="M3.20522 13.2975H14.576C14.7288 13.2975 14.8754 13.237 14.9835 13.1293C15.0916 13.0215 15.1523 12.8754 15.1523 12.723C15.1523 12.5706 15.0916 12.4245 14.9835 12.3167C14.8754 12.209 14.7288 12.1484 14.576 12.1484H3.20522C3.05237 12.1484 2.90579 12.209 2.79771 12.3167C2.68963 12.4245 2.62891 12.5706 2.62891 12.723C2.62891 12.8754 2.68963 13.0215 2.79771 13.1293C2.90579 13.237 3.05237 13.2975 3.20522 13.2975Z" fill="#434E4C"/>
<path d="M15.1523 19.9222C15.1523 19.7698 15.0916 19.6237 14.9835 19.5159C14.8754 19.4082 14.7288 19.3477 14.576 19.3477H3.20522C3.05237 19.3477 2.90579 19.4082 2.79771 19.5159C2.68963 19.6237 2.62891 19.7698 2.62891 19.9222C2.62891 20.0746 2.68963 20.2207 2.79771 20.3285C2.90579 20.4362 3.05237 20.4968 3.20522 20.4968H14.576C14.7288 20.4968 14.8754 20.4362 14.9835 20.3285C15.0916 20.2207 15.1523 20.0746 15.1523 19.9222Z" fill="#434E4C"/>
<path d="M15.1514 16.3138C15.1514 16.1614 15.0907 16.0153 14.9826 15.9075C14.8745 15.7998 14.7279 15.7393 14.5751 15.7393H0.576317C0.423468 15.7393 0.276888 15.7998 0.168808 15.9075C0.0607273 16.0153 0 16.1614 0 16.3138C0 16.4662 0.0607273 16.6123 0.168808 16.7201C0.276888 16.8278 0.423468 16.8884 0.576317 16.8884H14.5751C14.7279 16.8884 14.8745 16.8278 14.9826 16.7201C15.0907 16.6123 15.1514 16.4662 15.1514 16.3138Z" fill="#434E4C"/>
</g>
<defs>
<clipPath id="clip0_601_2258">
<rect width="35" height="35" fill="white"/>
</clipPath>
</defs>
</svg>
