<svg width="35" height="35" viewBox="0 0 35 35" fill="none" xmlns="http://www.w3.org/2000/svg">
<g clip-path="url(#clip0_601_2238)">
<path d="M35 0H0V35H35V0Z" fill="white" fill-opacity="0.01"/>
<path d="M25.8738 19.291C25.2509 19.2943 24.6419 19.4766 24.1182 19.8166C23.5945 20.1566 23.1778 20.6401 22.9169 21.2105C22.6561 21.7809 22.562 22.4145 22.6457 23.0369C22.7293 23.6594 22.9873 24.2448 23.3892 24.7246C23.6925 25.0782 24.0657 25.3641 24.4848 25.5638C24.733 25.6788 24.9945 25.762 25.2631 25.8114V27.3086C25.2958 27.9721 25.1945 28.6353 24.9652 29.258C24.736 29.8808 24.3836 30.45 23.9295 30.9313C23.4754 31.4125 22.9291 31.7956 22.3237 32.0574C21.7183 32.3192 21.0664 32.4542 20.4077 32.4542C19.749 32.4542 19.0972 32.3192 18.4918 32.0574C17.8864 31.7956 17.34 31.4125 16.886 30.9313C16.4319 30.45 16.0795 29.8808 15.8503 29.258C15.621 28.6353 15.5196 27.9721 15.5523 27.3086V21.712C15.5523 21.5519 15.4892 21.3983 15.377 21.2851C15.2647 21.1718 15.1124 21.1082 14.9536 21.1082C12.9939 21.0736 11.1258 20.265 9.75096 18.8563C8.73252 17.8387 7.95842 16.5996 7.4879 15.2339H8.93076C9.34125 16.2275 9.94132 17.13 10.6969 17.8903C11.4374 18.6302 12.3427 19.1809 13.3371 19.4963C13.9094 19.6713 14.5054 19.7548 15.1033 19.7438C17.6837 19.6895 19.9946 17.9326 21.0902 15.2339H22.5211C22.1366 16.4533 21.4904 17.5724 20.6284 18.5115C19.7665 19.4506 18.71 20.1867 17.534 20.6675C17.4605 20.6956 17.3932 20.7381 17.3359 20.7925C17.2787 20.8468 17.2326 20.9121 17.2004 20.9844C17.1681 21.0567 17.1503 21.1347 17.148 21.214C17.1457 21.2932 17.1588 21.3722 17.1868 21.4463C17.2147 21.5205 17.2568 21.5883 17.3107 21.6461C17.3646 21.7038 17.4293 21.7502 17.501 21.7827C17.5727 21.8153 17.6501 21.8332 17.7287 21.8356C17.8073 21.8379 17.8856 21.8247 17.9591 21.7965C19.4284 21.1945 20.7342 20.2479 21.7681 19.0352C22.8021 17.8224 23.5343 16.3785 23.9041 14.8233C23.9265 14.7342 23.9285 14.6411 23.9098 14.5511C23.8911 14.4612 23.8523 14.3767 23.7963 14.3041C23.7406 14.231 23.6689 14.1718 23.587 14.131C23.505 14.0902 23.4148 14.0689 23.3234 14.0686H22.7905C22.9416 13.3603 23.0179 12.6378 23.018 11.9133V4.92806C23.0326 4.52169 22.8872 4.126 22.6135 3.82738C22.3398 3.52876 21.9601 3.35146 21.5572 3.33419H20.3598C20.2533 3.01803 20.0701 2.73371 19.827 2.50707C19.5906 2.29292 19.3062 2.13984 18.9982 2.06095C18.6902 1.98205 18.3678 1.97972 18.0587 2.05414C17.7496 2.12855 17.4631 2.2775 17.2236 2.48819C16.9842 2.69889 16.7991 2.96503 16.6841 3.26377C16.5691 3.56251 16.5277 3.88493 16.5635 4.20334C16.5993 4.52175 16.7112 4.82665 16.8896 5.09185C17.068 5.35705 17.3075 5.57464 17.5876 5.72593C17.8678 5.87722 18.1801 5.9577 18.4979 5.96045H18.5937C19.1043 5.92534 19.5821 5.69414 19.9288 5.31445C20.1271 5.09292 20.2725 4.82858 20.3538 4.54166H21.5213C21.647 4.54166 21.7847 4.69864 21.7847 4.92806V11.8952C21.782 12.6216 21.6936 13.3452 21.5213 14.0505H20.6352C20.5115 14.051 20.3909 14.0902 20.2901 14.1626C20.1894 14.2351 20.1133 14.3372 20.0725 14.455C19.2163 16.9002 17.2466 18.5122 15.0374 18.5605C14.567 18.5663 14.0986 18.4991 13.6485 18.3612C12.8403 18.1008 12.1055 17.6496 11.5051 17.0451C10.775 16.3113 10.2166 15.4223 9.87071 14.443C9.82888 14.3263 9.7524 14.2254 9.6517 14.1541C9.551 14.0828 9.43098 14.0446 9.30794 14.0445H8.45778C8.25248 13.2705 8.14783 12.473 8.14647 11.6718V4.92806C8.14647 4.69864 8.28417 4.54166 8.40989 4.54166H9.75096C9.87178 4.95032 10.1198 5.30891 10.4584 5.56442C10.7969 5.81993 11.208 5.95878 11.6309 5.96045H11.7267C12.2457 5.93145 12.7332 5.69974 13.0857 5.31445C13.2808 5.09683 13.4255 4.83822 13.5094 4.5573C13.5933 4.27638 13.6142 3.98018 13.5707 3.6901C13.5272 3.40003 13.4203 3.12333 13.2577 2.88001C13.0952 2.63669 12.8811 2.43283 12.6308 2.28316C12.3806 2.1335 12.1006 2.04177 11.8109 2.01461C11.5212 1.98745 11.2292 2.02553 10.9559 2.12611C10.6826 2.22669 10.4348 2.38724 10.2306 2.59617C10.0264 2.8051 9.87073 3.05718 9.77492 3.33419H8.38594C8.18619 3.34196 7.98993 3.38938 7.80837 3.47371C7.62681 3.55805 7.46351 3.67766 7.32783 3.82569C7.19215 3.97373 7.08675 4.14729 7.01765 4.33645C6.94855 4.5256 6.91711 4.72664 6.92512 4.92806V11.6778C6.92632 12.4768 7.01872 13.2729 7.20052 14.0505H6.60182C6.50938 14.0498 6.41804 14.0707 6.33494 14.1116C6.25185 14.1524 6.17926 14.2121 6.12288 14.286C6.06701 14.3598 6.02877 14.4455 6.01111 14.5366C5.99346 14.6277 5.99687 14.7217 6.02109 14.8112C6.50964 16.6789 7.48301 18.3815 8.84096 19.7438C10.3066 21.224 12.2458 22.1311 14.313 22.3036V27.3086C14.2766 28.133 14.4063 28.9563 14.6941 29.7288C14.9818 30.5013 15.4218 31.207 15.9874 31.8034C16.5531 32.3997 17.2327 32.8743 17.9852 33.1986C18.7377 33.5228 19.5475 33.69 20.3658 33.69C21.1842 33.69 21.994 33.5228 22.7465 33.1986C23.499 32.8743 24.1786 32.3997 24.7442 31.8034C25.3098 31.207 25.7498 30.5013 26.0376 29.7288C26.3254 28.9563 26.455 28.133 26.4186 27.3086V25.437C26.4186 25.437 26.4186 25.4069 26.4186 25.3948C26.4215 25.3606 26.4215 25.3263 26.4186 25.2921C26.4186 25.132 26.3556 24.9785 26.2433 24.8652C26.131 24.752 25.9787 24.6884 25.8199 24.6884C25.5155 24.6892 25.2147 24.6211 24.9398 24.4892C24.6026 24.3301 24.3139 24.0825 24.104 23.7724C23.8941 23.4623 23.7707 23.1009 23.7468 22.7262C23.7228 22.3515 23.7992 21.9772 23.9678 21.6425C24.1365 21.3077 24.3913 21.0249 24.7055 20.8234C25.0197 20.622 25.3819 20.5095 25.754 20.4976C26.1262 20.4856 26.4947 20.5748 26.821 20.7557C27.1472 20.9367 27.4193 21.2027 27.6087 21.526C27.798 21.8493 27.8978 22.218 27.8974 22.5934C27.8987 23.0651 27.7403 23.523 27.4484 23.8915C27.3499 24.0172 27.305 24.1771 27.3236 24.3362C27.3421 24.4953 27.4225 24.6404 27.5472 24.7397C27.6718 24.839 27.8305 24.8843 27.9882 24.8656C28.146 24.8469 28.2899 24.7658 28.3883 24.6401C28.7695 24.1534 29.007 23.5683 29.0737 22.9518C29.1405 22.3354 29.0337 21.7124 28.7657 21.1542C28.4977 20.5961 28.0793 20.1253 27.5583 19.7958C27.0373 19.4662 26.4349 19.2913 25.8199 19.291H25.8738ZM18.5159 4.75297C18.4104 4.76595 18.3033 4.75683 18.2015 4.72618C18.0997 4.69554 18.0052 4.64402 17.924 4.57487C17.8428 4.50571 17.7766 4.4204 17.7296 4.32427C17.6826 4.22814 17.6558 4.12327 17.6509 4.01621C17.6459 3.90915 17.6629 3.80221 17.7008 3.70208C17.7387 3.60196 17.7967 3.5108 17.8712 3.43431C17.9456 3.35783 18.0349 3.29766 18.1335 3.25758C18.2321 3.2175 18.3378 3.19836 18.444 3.20137H18.4799C18.6848 3.19656 18.8831 3.27401 19.0313 3.41667C19.1795 3.55933 19.2654 3.75552 19.2702 3.96208C19.275 4.16863 19.1982 4.36864 19.0567 4.51809C18.9152 4.66754 18.7207 4.75421 18.5159 4.75901V4.75297ZM11.6189 3.20137H11.6548C11.8536 3.20115 12.0448 3.27821 12.1886 3.41652C12.3325 3.55484 12.4179 3.74375 12.4271 3.94396C12.4319 4.0465 12.4163 4.14895 12.3814 4.24535C12.3464 4.34176 12.2928 4.43017 12.2236 4.50544C12.0862 4.65765 11.8946 4.74881 11.6907 4.75901C11.496 4.7535 11.3105 4.67394 11.1714 4.5363C11.0323 4.39866 10.95 4.2131 10.9409 4.01682C10.9318 3.82054 10.9967 3.62805 11.1224 3.47794C11.2481 3.32783 11.4255 3.2312 11.6189 3.2074V3.20137Z" fill="#434E4C"/>
<path d="M25.8711 21.669C25.6899 21.669 25.5128 21.7231 25.3622 21.8246C25.2115 21.9261 25.0941 22.0704 25.0248 22.2392C24.9555 22.408 24.9373 22.5937 24.9727 22.7729C25.008 22.9521 25.0952 23.1167 25.2234 23.2458C25.3515 23.375 25.5147 23.463 25.6924 23.4987C25.87 23.5343 26.0542 23.516 26.2216 23.4461C26.389 23.3762 26.532 23.2578 26.6327 23.1059C26.7333 22.954 26.7871 22.7754 26.7871 22.5927C26.7879 22.4712 26.7647 22.3507 26.719 22.2382C26.6732 22.1258 26.6058 22.0237 26.5206 21.9377C26.4353 21.8518 26.334 21.7838 26.2225 21.7376C26.111 21.6915 25.9916 21.6682 25.8711 21.669Z" fill="#434E4C"/>
</g>
<defs>
<clipPath id="clip0_601_2238">
<rect width="35" height="35" fill="white"/>
</clipPath>
</defs>
</svg>
